<?xml version="1.0" encoding="utf-8"?>
<!-- Generator: Adobe Illustrator 24.0.2, SVG Export Plug-In . SVG Version: 6.00 Build 0)  -->
<svg version="1.1" id="Layer_1" xmlns="http://www.w3.org/2000/svg" xmlns:xlink="http://www.w3.org/1999/xlink" x="0px" y="0px"
	 viewBox="0 0 512 512" enable-background="new 0 0 512 512" xml:space="preserve">
<g>
	<g>
		<g>
			<path fill="#606466" d="M261.6,480.4c-1.6,0-3-1.3-3-3c0-0.5-0.2-13.6,5.9-51c0.9-5.5,3.5-16.5,7-24.1c0.4-0.8,1-1.4,1.9-1.6
				c0.8-0.3,1.7-0.1,2.5,0.3l0.6,0.3c3.3,1.7,8.8,3.9,26.3,7.9c16.7,3.9,32.8-0.8,38.7-7.6c2.7-3.1,1.9-8.7,0.7-13.8
				c-0.3-1.4-0.7-2.8-1-4.2c-1-4-1.9-7.5-1.7-10.2c0.5-5.2,5-8,9.1-10.4c1.4-0.9,2.8-1.7,4-2.7c1-0.8,1.7-1.6,2.1-2.3
				c0.1-0.3,0.5-1.1,0.2-1.5c-0.3-0.6-2.1-1.7-6.5-2c-1.5-0.1-2.7-1.3-2.8-2.8c-0.1-1.5,0.9-2.8,2.3-3.2c5.4-1.3,9.6-3.4,10.1-4.4
				c0-0.1,0.1-0.9-0.4-3.7l-0.3-1.8c-0.4-2.5-0.8-5.4-1-8.1c-0.2-2.3-0.1-4.2,0.2-5.9c0.1-0.6,0.2-1.3,0.4-1.9
				c0.4-1.1,1.4-1.9,2.6-2.1c7.2-0.7,14-4.3,15.4-7.9c1.5-4.2-8.6-18.9-15.9-29.7c-9.7-14.1-9.5-32-9.4-46.4c0-1.8,0-3.5,0-5.2
				c0-14.4-8.7-49.7-19.5-66c-3.2-4.8-33.3-47.4-101-47.4c-78.5,0-115.5,55.3-121.1,92.5c-4.4,29.1,12.2,73.5,21.2,97.4
				c2.2,5.8,4,10.5,5,13.9c1,3.2,1.7,7.1,2,11.7c0.2,3.5,0.2,7.3,0,11.3c-0.4,7.6-4.3,29.5-11.8,65c-0.3,1.6-2,2.7-3.6,2.3
				c-1.6-0.3-2.7-1.9-2.3-3.6c7.3-34.7,11.3-56.8,11.7-64c0.2-3.8,0.2-7.3,0-10.6c-0.3-4.1-0.8-7.5-1.7-10.2
				c-1-3.2-2.8-7.9-4.9-13.6c-9.8-26.1-26.2-69.8-21.5-100.4c6-39.2,44.7-97.6,127.1-97.6c70.8,0,102.6,44.9,106,50.1
				c11.7,17.7,20.5,54.2,20.5,69.3c0,1.7,0,3.4,0,5.2c-0.2,13.5-0.4,30.4,8.3,42.9c11.9,17.4,19,28.4,16.6,35.1
				c-2.3,6.3-10.6,10.2-18.1,11.5c-0.1,1.1-0.1,2.4,0,3.8c0.2,2.6,0.6,5.2,0.9,7.6l0.3,1.9c0.5,3.2,0.6,5.5-0.1,7.1
				c-0.8,1.9-2.9,3.5-5.3,4.7c0.8,0.6,1.4,1.3,1.9,2.1c0.8,1.4,1.5,3.8,0,7.1c-0.8,1.6-2,3.1-3.8,4.5c-1.4,1.1-3,2.1-4.6,3.1
				c-3.1,1.9-6,3.7-6.2,5.8c-0.1,1.7,0.7,5,1.5,8.2c0.4,1.4,0.7,2.9,1.1,4.4c1.5,6.6,2.4,14-2.1,19.1c-7,8-25,14.1-44.7,9.6
				c-14.5-3.4-21.2-5.5-25.5-7.4c-2.7,6.8-4.6,15.2-5.4,19.7c-6,36.7-5.9,49.8-5.9,49.9C264.7,479,263.3,480.4,261.6,480.4
				C261.6,480.4,261.6,480.4,261.6,480.4z"/>
		</g>
	</g>
</g>
<g>
	<g>
		<g>
			<path fill="#FCD751" d="M501.3,159l-269.8,24.2c-29.9,0-54.2,24.3-54.2,54.2s24.3,54.2,54.2,54.2l269.8,24.2V159z"/>
		</g>
	</g>
</g>
<g>
	<g>
		<g>
			<circle fill="#DFDFDF" cx="231.5" cy="237.3" r="21.1"/>
		</g>
	</g>
</g>
<g>
	<g>
		<g>
			<g>
				<path fill="#606466" d="M240.5,240.4h-9.1c-1.7,0-3-1.4-3-3c0-1.7,1.4-3,3-3h9.1c1.7,0,3,1.4,3,3
					C243.5,239,242.2,240.4,240.5,240.4z"/>
			</g>
		</g>
	</g>
	<g>
		<g>
			<g>
				<path fill="#606466" d="M434.6,240.4h-19.4c-1.7,0-3-1.4-3-3c0-1.7,1.4-3,3-3h19.4c1.7,0,3,1.4,3,3
					C437.6,239,436.2,240.4,434.6,240.4z M395.8,240.4h-19.4c-1.7,0-3-1.4-3-3c0-1.7,1.4-3,3-3h19.4c1.7,0,3,1.4,3,3
					C398.8,239,397.4,240.4,395.8,240.4z M356.9,240.4h-19.4c-1.7,0-3-1.4-3-3c0-1.7,1.4-3,3-3h19.4c1.7,0,3,1.4,3,3
					C360,239,358.6,240.4,356.9,240.4z M318.1,240.4h-19.4c-1.7,0-3-1.4-3-3c0-1.7,1.4-3,3-3h19.4c1.7,0,3,1.4,3,3
					C321.2,239,319.8,240.4,318.1,240.4z M279.3,240.4h-19.4c-1.7,0-3-1.4-3-3c0-1.7,1.4-3,3-3h19.4c1.7,0,3,1.4,3,3
					C282.3,239,281,240.4,279.3,240.4z"/>
			</g>
		</g>
	</g>
	<g>
		<g>
			<g>
				<path fill="#606466" d="M463,240.4H454c-1.7,0-3-1.4-3-3c0-1.7,1.4-3,3-3h9.1c1.7,0,3,1.4,3,3C466.1,239,464.7,240.4,463,240.4z
					"/>
			</g>
		</g>
	</g>
	<g>
		<g>
			<g>
				<g>
					<circle fill="#606466" cx="231.5" cy="237.3" r="11.4"/>
				</g>
			</g>
		</g>
	</g>
	<g>
		<g>
			<g>
				<g>
					<polygon fill="#606466" points="457,245.7 489.8,237 457,228.2 					"/>
				</g>
			</g>
		</g>
	</g>
</g>
<g>
	<g>
		<g>
			<path fill="#77D0DE" d="M257,242.8c0.4-1.8,0.6-3.6,0.6-5.4c0-1.8-0.2-3.6-0.6-5.4l10.5-10.6l-4.1-7.2l-14.4,3.8
				c-1.4-1.2-2.8-2.3-4.4-3.2c-1.6-0.9-3.2-1.7-5-2.2l-3.9-14.4h-8.2l-3.9,14.4c-1.7,0.6-3.4,1.3-5,2.2c-1.6,0.9-3.1,2-4.4,3.2
				l-14.4-3.8l-4.1,7.2l10.5,10.6c-0.4,1.8-0.6,3.6-0.6,5.4c0,1.8,0.2,3.6,0.6,5.4l-10.5,10.6l4.1,7.2l14.4-3.8
				c1.4,1.2,2.8,2.3,4.4,3.2c1.6,0.9,3.2,1.7,5,2.2l3.9,14.4h8.2l3.9-14.4c1.7-0.6,3.4-1.3,5-2.2c1.6-0.9,3.1-2,4.4-3.2l14.4,3.8
				l4.1-7.2L257,242.8z M240.1,252.4c-5.2,3.1-12.2,3.1-17.3,0c-5.3-3-8.7-8.9-8.7-15c0-6.1,3.4-12,8.7-15c5.2-3.1,12.2-3.1,17.3,0
				c5.3,3,8.7,8.9,8.7,15C248.9,243.4,245.5,249.3,240.1,252.4z"/>
		</g>
	</g>
</g>
<g>
	<g>
		<g>
			<g>
				<path fill="#DFDFDF" d="M52.9,255.5H16.6C16.6,137,113,40.6,231.5,40.6v36.2C133,76.9,52.9,157,52.9,255.5z"/>
			</g>
		</g>
	</g>
	<g>
		<g>
			<g>
				<g>
					<polygon fill="#DFDFDF" points="220.9,94.7 283.5,58.5 220.9,22.4 					"/>
				</g>
			</g>
		</g>
	</g>
</g>
<g>
	<g>
		<g>
			<path fill="#DFDFDF" d="M40.8,411.4H28.7v-23.2h12.1V411.4z M40.8,357.9H28.7v-24.2h12.1V357.9z M40.8,303.6H28.7v-24.2h12.1
				V303.6z"/>
		</g>
	</g>
</g>
<g>
	<g>
		<g>
			<path fill="#1C4670" d="M474.3,397.8c0,6.6-1.7,12.7-4.7,18.1c-6.3-11.5-18.6-19.3-32.7-19.3c-14.1,0-26.3,7.8-32.7,19.3
				c-3-5.4-4.7-11.5-4.7-18.1c0-20.7,16.7-37.4,37.4-37.4C457.5,360.4,474.3,377.1,474.3,397.8z"/>
		</g>
	</g>
</g>
<g>
	<g>
		<g>
			<path fill="#F7D14D" d="M474.3,434c0,20.7-16.7,37.4-37.4,37.4c-20.7,0-37.4-16.7-37.4-37.4c0-6.6,1.7-12.7,4.7-18.1
				c6.3,11.5,18.6,19.3,32.7,19.3c14.1,0,26.3-7.8,32.7-19.3C472.6,421.3,474.3,427.4,474.3,434z"/>
		</g>
	</g>
</g>
<g>
	<g>
		<g>
			<path fill="#606466" d="M436.9,438.2c-14.7,0-28.2-8-35.3-20.8c-0.5-0.9-0.5-2,0-2.9c7.1-12.8,20.6-20.8,35.3-20.8
				c14.7,0,28.2,8,35.3,20.8c0.5,0.9,0.5,2,0,2.9C465.1,430.2,451.6,438.2,436.9,438.2z M407.7,415.9c6.2,10.1,17.3,16.2,29.2,16.2
				c11.9,0,22.9-6.2,29.2-16.2c-6.2-10.1-17.3-16.2-29.2-16.2C424.9,399.6,413.9,405.8,407.7,415.9z"/>
		</g>
	</g>
</g>
<g>
	<g>
		<g>
			<path fill="#606466" d="M447.1,415.9c0,5.6-4.6,10.2-10.2,10.2c-5.6,0-10.2-4.6-10.2-10.2c0-5.6,4.6-10.2,10.2-10.2
				C442.5,405.7,447.1,410.3,447.1,415.9z"/>
		</g>
	</g>
</g>
</svg>
