<?xml version="1.0" encoding="utf-8"?>
<!-- Generator: Adobe Illustrator 24.0.2, SVG Export Plug-In . SVG Version: 6.00 Build 0)  -->
<svg version="1.1" id="Layer_1" xmlns="http://www.w3.org/2000/svg" xmlns:xlink="http://www.w3.org/1999/xlink" x="0px" y="0px"
	 viewBox="0 0 512 512" enable-background="new 0 0 512 512" xml:space="preserve">
<g>
	<g>
		<g>
			<g>
				<rect x="420" y="86.7" fill="#DFDFDF" width="10.9" height="56.8"/>
			</g>
		</g>
	</g>
	<g>
		<g>
			<g>
				<rect x="403.2" y="98.3" fill="#DFDFDF" width="10.9" height="45.2"/>
			</g>
		</g>
	</g>
	<g>
		<g>
			<g>
				<rect x="386.5" y="101.1" fill="#DFDFDF" width="10.9" height="42.4"/>
			</g>
		</g>
	</g>
	<g>
		<g>
			<g>
				<rect x="369.7" y="86.7" fill="#DFDFDF" width="10.9" height="56.8"/>
			</g>
		</g>
	</g>
	<g>
		<g>
			<g>
				<rect x="487.1" y="104.2" fill="#DFDFDF" width="10.9" height="39.2"/>
			</g>
		</g>
	</g>
	<g>
		<g>
			<g>
				<rect x="470.3" y="98.3" fill="#DFDFDF" width="10.9" height="45.2"/>
			</g>
		</g>
	</g>
	<g>
		<g>
			<g>
				<rect x="453.5" y="77.7" fill="#6BA417" width="10.9" height="65.8"/>
			</g>
		</g>
	</g>
	<g>
		<g>
			<g>
				<rect x="436.8" y="116" fill="#DFDFDF" width="10.9" height="27.5"/>
			</g>
		</g>
	</g>
</g>
<g>
	<g>
		<g>
			<g>
				<rect x="44.7" y="286.1" fill="#DFDFDF" width="10.9" height="56.8"/>
			</g>
		</g>
	</g>
	<g>
		<g>
			<g>
				<rect x="61.4" y="297.7" fill="#6BA417" width="10.9" height="45.2"/>
			</g>
		</g>
	</g>
	<g>
		<g>
			<g>
				<rect x="78.2" y="300.5" fill="#DFDFDF" width="10.9" height="42.4"/>
			</g>
		</g>
	</g>
	<g>
		<g>
			<g>
				<rect x="95" y="286.1" fill="#DFDFDF" width="10.9" height="56.8"/>
			</g>
		</g>
	</g>
	<g>
		<g>
			<g>
				<rect x="11.1" y="277.1" fill="#DFDFDF" width="10.9" height="65.8"/>
			</g>
		</g>
	</g>
	<g>
		<g>
			<g>
				<rect x="27.9" y="315.4" fill="#DFDFDF" width="10.9" height="27.5"/>
			</g>
		</g>
	</g>
</g>
<g>
	<g>
		<g>
			<path fill="#77D0DE" d="M276.8,488.4H126.4c0,0,24.9-109.8,25.9-128.8c0.2-3.8,0.2-7.3,0-10.6c-0.3-4.1-0.8-7.7-1.8-10.6
				c-5.4-17.1-31-73.6-25.6-109.2c5.4-35.6,40.4-92.2,120.4-92.2c63.8,0,94.3,37.9,100.4,47.3c10.9,16.5,19.4,51.5,19.4,65.6
				c0,14.2-1.6,33.8,8.5,48.3c10,14.6,17.7,26.2,15.8,31.4c-1.8,5-9.8,8.8-17.3,9.5c-0.1,0.4-0.2,0.9-0.3,1.4
				c-0.2,1.6-0.2,3.4-0.1,5.1c0.2,3.3,0.8,6.7,1.2,9.4c0.4,2.4,0.5,4.3,0.1,5.3c-1.1,2.6-7.7,4.9-11.8,5.9c7.4,0.6,10.5,3.2,8.5,7.6
				c-0.6,1.3-1.6,2.3-2.8,3.3c-4.3,3.4-11.1,5.7-11.5,10.6c-0.2,3,1.4,7.9,2.5,13.1c1.3,5.9,2,12-1.4,16c-6.4,7.4-23,12.4-40.5,8.3
				c-16.3-3.8-22.3-5.9-26.2-7.9c-0.3-0.1-0.5-0.3-0.8-0.4c-3.3,7.2-5.8,17.5-6.6,22.7C276.6,475.9,276.8,488.4,276.8,488.4z"/>
		</g>
	</g>
</g>
<g>
	<g>
		<g>
			
				<ellipse transform="matrix(2.495580e-02 -0.9997 0.9997 2.495580e-02 -14.052 496.6167)" fill="#FFFFFF" cx="247.6" cy="255.5" rx="95.4" ry="95.4"/>
		</g>
	</g>
</g>
<g>
	<g>
		<g>
			<g>
				<path fill="#6BA417" d="M306.7,282.8c-10.2,24.1-34.2,40.1-60.5,40.1c-36.3,0-65.9-29.6-65.9-65.9c0-35.3,27.8-64.2,62.6-65.8
					v68l2.1,0.8L306.7,282.8z"/>
			</g>
		</g>
	</g>
	<g>
		<g>
			<g>
				<path fill="#DFDFDF" d="M314.8,253c0,8-1.5,15.5-4.1,22.5L249.9,253v-64.8C285.7,188.1,314.8,217.2,314.8,253z"/>
			</g>
		</g>
	</g>
</g>
<g>
	<g>
		<g>
			<g>
				<path fill="#606466" d="M283.5,234.3c-0.7,0-1.5-0.3-2.1-0.9c-1.1-1.1-1.1-3,0-4.1l79-79c0.5-0.5,1.3-0.9,2.1-0.9h144
					c1.6,0,2.9,1.3,2.9,2.9c0,1.6-1.3,2.9-2.9,2.9H363.7l-78.1,78.1C285,234,284.3,234.3,283.5,234.3z"/>
			</g>
		</g>
	</g>
	<g>
		<g>
			<g>
				<g>
					<path fill="#606466" d="M290.1,237.3c-3.4,3.4-9,3.4-12.5,0c-3.4-3.4-3.4-9,0-12.5c3.4-3.4,9-3.4,12.5,0
						C293.5,228.2,293.5,233.8,290.1,237.3z"/>
				</g>
			</g>
		</g>
	</g>
</g>
<g>
	<g>
		<g>
			<g>
				<path fill="#606466" d="M115.7,355.9H5.4c-1.6,0-2.9-1.3-2.9-2.9s1.3-2.9,2.9-2.9h109.1l89.5-84.1c1.2-1.1,3-1.1,4.1,0.1
					c1.1,1.2,1,3-0.1,4.1l-90.4,84.9C117.2,355.6,116.5,355.9,115.7,355.9z"/>
			</g>
		</g>
	</g>
	<g>
		<g>
			<g>
				<g>
					<path fill="#606466" d="M199.7,262c3.5-3.3,9.1-3.2,12.5,0.4c3.3,3.5,3.2,9.1-0.4,12.5c-3.5,3.3-9.1,3.2-12.5-0.4
						C196,270.9,196.2,265.3,199.7,262z"/>
				</g>
			</g>
		</g>
	</g>
</g>
</svg>
