<?xml version="1.0" encoding="utf-8"?>
<!-- Generator: Adobe Illustrator 23.0.6, SVG Export Plug-In . SVG Version: 6.00 Build 0)  -->
<svg version="1.1" id="Layer_1" xmlns="http://www.w3.org/2000/svg" xmlns:xlink="http://www.w3.org/1999/xlink" x="0px" y="0px"
	 viewBox="0 0 612 792" style="enable-background:new 0 0 612 792;" xml:space="preserve">
<style type="text/css">
	.st0{fill-rule:evenodd;clip-rule:evenodd;fill:#F8991D;}
</style>
<g>
	<path d="M272.1,389.9c-3.5,0-5.8-1.7-6.8-3.9c-0.4-0.9-0.6-1.8-0.6-2.7c0-0.9,0.2-1.9,0.6-2.7c1-2.2,3.3-3.9,6.8-3.9h15.3h0.3v0.3
		v3.8v0.3h-0.3h-15.3c-1.1,0-1.7,0.6-2,1.3l0,0c-0.1,0.3-0.2,0.6-0.2,0.9c0,0.4,0.1,0.7,0.2,1.1c0.3,0.6,1,1.1,2,1.1v0h9.2v0
		c3.5,0,5.8,1.7,6.8,3.9c0.4,0.9,0.6,1.8,0.6,2.7c0,0.9-0.2,1.9-0.6,2.7c-1,2.2-3.3,3.9-6.8,3.9H266h-0.3v-0.3v-3.8v-0.3h0.3h15.3
		c1.1,0,1.7-0.6,2-1.3c0.1-0.3,0.2-0.6,0.2-0.9c0-0.4-0.1-0.9-0.4-1.3c-0.4-0.6-1-0.9-1.9-0.9L272.1,389.9L272.1,389.9L272.1,389.9z
		"/>
	<path d="M321.3,387.5L321.3,387.5L321.3,387.5c0,1.6-0.3,3.1-0.8,4.5c-0.1,0.2-0.2,0.4-0.3,0.6c-0.5,1.1-1.2,2.1-2.1,3
		c-1,1.1-2.2,1.9-3.6,2.4c-1.3,0.5-2.8,0.8-4.4,0.8h-6c-3.2,0-5.9-1.1-8-3.2h0l0,0l0,0c-0.3-0.3-0.6-0.6-0.8-0.9
		c-0.3-0.3-0.5-0.7-0.7-1c-1.1-1.8-1.6-3.8-1.6-6.2v0h0c0-1.6,0.3-3.1,0.8-4.4c0.1-0.2,0.2-0.4,0.3-0.6c0.5-1.1,1.2-2,2.1-2.8l0,0
		l0,0c0.5-0.5,1.1-0.9,1.7-1.3l0,0c0.6-0.4,1.2-0.7,1.9-0.9c1.3-0.5,2.8-0.7,4.4-0.7h6h0v0c1.6,0,3.1,0.2,4.5,0.7l0,0
		c0.2,0.1,0.4,0.2,0.6,0.3c1.1,0.5,2.1,1.1,2.9,2l0,0l0,0h0c0.3,0.3,0.6,0.6,0.8,0.9c0.3,0.3,0.5,0.6,0.7,1
		C320.8,383.1,321.3,385.1,321.3,387.5L321.3,387.5z M317,387.8L317,387.8L317,387.8c0-1-0.2-1.9-0.5-2.7c-0.1-0.3-0.2-0.5-0.4-0.8
		c-0.3-0.5-0.6-1-1.1-1.4c-1.3-1.3-2.9-1.9-4.9-1.9h-6c-2,0-3.6,0.6-4.9,1.9l0,0l0,0h0c-0.3,0.3-0.6,0.7-0.8,1
		c-0.2,0.4-0.4,0.7-0.6,1.1c-0.3,0.8-0.5,1.7-0.5,2.7v0h0c0,1,0.2,1.9,0.5,2.7c0,0.1,0.1,0.3,0.2,0.4c0.3,0.6,0.7,1.2,1.3,1.7l0,0
		l0,0l0,0c0.2,0.2,0.4,0.3,0.6,0.5c0.2,0.1,0.4,0.3,0.6,0.4c1.1,0.6,2.3,0.9,3.7,0.9h6h0v0c1,0,1.9-0.2,2.7-0.5
		c0.3-0.1,0.5-0.2,0.8-0.4c0.5-0.3,1-0.6,1.4-1l0,0l0,0l0,0c0.2-0.2,0.3-0.4,0.5-0.5c0.2-0.2,0.3-0.4,0.4-0.6
		C316.7,390.4,317,389.2,317,387.8L317,387.8z"/>
	<polygon points="359.6,398.8 355.8,398.8 355.5,398.8 355.5,398.5 355.5,376.9 355.5,376.6 355.8,376.6 359.6,376.6 359.9,376.6 
		359.9,376.9 359.9,398.5 359.9,398.8 359.6,398.8 	"/>
	<path d="M393.6,398.8l-4.8,0l-9.6-15.7l-9.4,15.5l-0.1,0.2h-0.2h-4.8h-0.6l0.3-0.5l11.7-19.5c1.8-3,4.6-3,6.4,0l11.4,19.5l0.3,0.5
		L393.6,398.8L393.6,398.8z M379.1,392.7c1.7,0,3,1.4,3,3c0,1.7-1.4,3-3,3c-1.7,0-3-1.4-3-3C376.1,394.1,377.4,392.7,379.1,392.7
		L379.1,392.7z"/>
	<polygon points="416.8,398.8 398.2,398.8 397.9,398.8 397.9,398.5 397.9,376.9 397.9,376.6 398.2,376.6 402,376.6 402.3,376.6 
		402.3,376.9 402.3,394.4 416.8,394.4 417.1,394.4 417.1,394.7 417.1,398.5 417.1,398.8 416.8,398.8 	"/>
	<path d="M349.1,398.8H337v0c-3.2,0-5.9-1.1-8-3.2h0l0,0l0,0c-0.3-0.3-0.6-0.6-0.8-0.9c-0.3-0.3-0.5-0.7-0.7-1
		c-1.1-1.8-1.6-3.8-1.6-6.2v0h0c0-1.6,0.3-3.1,0.8-4.4c0.1-0.2,0.2-0.4,0.3-0.6c0.5-1.1,1.2-2,2.1-2.8l0,0l0,0
		c0.5-0.5,1.1-0.9,1.7-1.3l0,0c0.6-0.4,1.2-0.7,1.9-0.9c1.3-0.5,2.8-0.7,4.4-0.7v0h12.2h0.3v0.3v3.8v0.3h-0.3H337v0
		c-2,0-3.6,0.6-4.9,1.9l0,0l0,0h0c-0.3,0.3-0.6,0.7-0.8,1c-0.2,0.4-0.4,0.7-0.6,1.1c-0.3,0.8-0.5,1.7-0.5,2.7v0h0
		c0,1,0.2,1.9,0.5,2.7c0.1,0.1,0.1,0.3,0.2,0.4c0.3,0.6,0.7,1.2,1.3,1.7l0,0l0,0l0,0c0.2,0.2,0.4,0.3,0.6,0.5
		c0.2,0.1,0.4,0.3,0.6,0.4c1.1,0.6,2.3,0.9,3.7,0.9v0h12.2h0.3v0.3v3.8v0.3H349.1L349.1,398.8z"/>
	<path d="M265.6,416.6v-12.5h2.2v5.4h6.5v-5.4h2.2v12.5h-2.2v-5.1h-6.5v5.1H265.6L265.6,416.6z M287.5,413.7l-1.3,2.8h-2.4l5.8-12.5
		h2.4l5.8,12.5h-2.4l-1.3-2.8H287.5L287.5,413.7z M293.2,411.8l-2.4-5.1l-2.4,5.1H293.2L293.2,411.8z M315.5,408.1
		c0,2.1-0.9,3.4-2.8,3.9l3.5,4.5h-2.8l-3.1-4.2h-2.9v4.2H305v-12.5h4.9c2,0,3.5,0.3,4.3,1C315.1,405.7,315.5,406.7,315.5,408.1
		L315.5,408.1z M310,410.4c1.3,0,2.1-0.2,2.6-0.6c0.5-0.4,0.7-1,0.7-1.8c0-0.8-0.2-1.4-0.7-1.7c-0.5-0.3-1.3-0.5-2.5-0.5h-2.8v4.5
		H310L310,410.4z M328.6,404.1c2.4,0,4.2,0.5,5.4,1.6c1.3,1.1,1.9,2.6,1.9,4.5c0,1.9-0.6,3.5-1.8,4.6c-1.2,1.1-3.1,1.7-5.7,1.7H324
		v-12.5H328.6L328.6,404.1z M333.7,410.3c0-2.9-1.7-4.3-5.2-4.3h-2.2v8.6h2.5c1.6,0,2.8-0.4,3.7-1.1
		C333.2,412.8,333.7,411.7,333.7,410.3L333.7,410.3z M348.2,413.1l2.9-9h2l2.9,9l3.3-9h2.4l-4.6,12.5H355l-2.8-8.6h-0.2l-2.8,8.6
		h-2.2l-4.6-12.5h2.4L348.2,413.1L348.2,413.1z M371.1,413.7l-1.3,2.8h-2.4l5.8-12.5h2.4l5.8,12.5H379l-1.3-2.8H371.1L371.1,413.7z
		 M376.8,411.8l-2.4-5.1l-2.4,5.1H376.8L376.8,411.8z M399.1,408.1c0,2.1-0.9,3.4-2.8,3.9l3.5,4.5h-2.8l-3.1-4.2h-2.9v4.2h-2.2
		v-12.5h4.9c2,0,3.5,0.3,4.3,1C398.6,405.7,399.1,406.7,399.1,408.1L399.1,408.1z M393.6,410.4c1.3,0,2.1-0.2,2.6-0.6
		c0.5-0.4,0.7-1,0.7-1.8c0-0.8-0.2-1.4-0.7-1.7c-0.5-0.3-1.3-0.5-2.5-0.5h-2.8v4.5H393.6L393.6,410.4z M416.9,404.1v2h-7v3.3h6.6
		v1.9h-6.6v3.3h7.3v2h-9.5v-12.5H416.9L416.9,404.1z"/>
	<path class="st0" d="M235.5,368.9c3.4,3.4,1.1,7.3,4.8,11c3.7,3.7,7.7,1.4,11,4.8c2.3,2.3,2.3,6,0,8.3c-2.3,2.3-6,2.3-8.3,0
		c-3.4-3.4-0.9-7.2-4.8-11c-3.8-3.8-7.7-1.4-11-4.8c-2.3-2.3-2.3-6,0-8.3C229.5,366.7,233.2,366.7,235.5,368.9L235.5,368.9z"/>
	<path class="st0" d="M219.7,384.7c3.4,3.4,1.1,7.3,4.8,11c3.7,3.7,7.7,1.4,11,4.8c2.3,2.3,2.3,6,0,8.3c-2.3,2.3-6,2.3-8.3,0
		c-3.4-3.4-0.9-7.2-4.8-11c-3.8-3.8-7.7-1.4-11-4.8c-2.3-2.3-2.3-6,0-8.3C213.7,382.5,217.4,382.5,219.7,384.7L219.7,384.7z"/>
	<path class="st0" d="M235.5,384.7c3.4,3.4,1.1,7.3,4.8,11c3.7,3.7,7.7,1.4,11,4.8c2.3,2.3,2.3,6,0,8.3c-2.3,2.3-6,2.3-8.3,0
		c-3.4-3.4-0.9-7.2-4.8-11c-3.8-3.8-7.7-1.4-11-4.8c-2.3-2.3-2.3-6,0-8.3C229.5,382.5,233.2,382.5,235.5,384.7L235.5,384.7z"/>
	<path class="st0" d="M219.7,400.5c3.4,3.4,1.1,7.3,4.8,11c3.7,3.7,7.7,1.4,11,4.8c2.3,2.3,2.3,6,0,8.3c-2.3,2.3-6,2.3-8.3,0
		c-3.4-3.4-0.9-7.2-4.8-11c-3.8-3.8-7.7-1.4-11-4.8c-2.3-2.3-2.3-6,0-8.3C213.7,398.3,217.4,398.3,219.7,400.5L219.7,400.5z"/>
</g>
</svg>
